<svg xmlns="http://www.w3.org/2000/svg" enable-background="new 0 0 512 512" viewBox="0 0 512 512" id="Target"><path d="M256.473,431.711c-96.651,0-175.282-78.62-175.282-175.258c0-96.607,78.631-175.204,175.282-175.204
				c96.67,0,175.317,78.597,175.317,175.204C431.79,353.091,353.143,431.711,256.473,431.711z M256.473,91.249
				c-91.137,0-165.282,74.11-165.282,165.204c0,91.123,74.145,165.258,165.282,165.258c91.156,0,165.317-74.135,165.317-165.258
				C421.79,165.359,347.629,91.249,256.473,91.249z" fill="#ffffff" class="color000000 svgShape"></path><path d="M256.473 290.496c-18.747 0-33.999-15.271-33.999-34.043 0-18.713 15.252-33.938 33.999-33.938 18.754 0 34.012 15.225 34.012 33.938C290.484 275.225 275.227 290.496 256.473 290.496zM256.473 232.516c-13.233 0-23.999 10.738-23.999 23.938 0 13.258 10.766 24.043 23.999 24.043 13.24 0 24.012-10.785 24.012-24.043C280.484 243.254 269.713 232.516 256.473 232.516zM256.473 184.854c-2.761 0-5-2.238-5-5V16.829c0-2.762 2.239-5 5-5 2.762 0 5 2.238 5 5v163.025C261.473 182.616 259.234 184.854 256.473 184.854zM496.237 261.453h-163.07c-2.762 0-5-2.238-5-5s2.238-5 5-5h163.07c2.762 0 5 2.238 5 5S498.999 261.453 496.237 261.453zM256.473 501.124c-2.761 0-5-2.238-5-5V333.157c0-2.762 2.239-5 5-5 2.762 0 5 2.238 5 5v162.967C261.473 498.886 259.234 501.124 256.473 501.124zM179.79 261.453H16.731c-2.761 0-5-2.238-5-5s2.239-5 5-5H179.79c2.761 0 5 2.238 5 5S182.551 261.453 179.79 261.453z" fill="#ffffff" class="color000000 svgShape"></path></svg>